<?xml version="1.0" standalone="no"?>
<!DOCTYPE svg PUBLIC "-//W3C//DTD SVG 20010904//EN"
 "http://www.w3.org/TR/2001/REC-SVG-20010904/DTD/svg10.dtd">
<svg version="1.0" xmlns="http://www.w3.org/2000/svg"
 width="602.000000pt" height="172.000000pt" viewBox="0 0 602.000000 172.000000"
 preserveAspectRatio="xMidYMid meet">

<g transform="translate(0.000000,172.000000) scale(0.100000,-0.100000)"
fill="#000000" stroke="none">
<path d="M481 1704 c-100 -21 -168 -59 -248 -139 -58 -58 -82 -91 -118 -166
-84 -176 -123 -389 -112 -616 25 -485 257 -783 612 -783 364 0 605 341 605
855 0 332 -99 607 -270 750 -118 98 -298 137 -469 99z m177 -226 c28 -28 0
-88 -43 -88 -43 0 -57 38 -29 78 17 24 53 29 72 10z m53 -93 c8 -80 -9 -102
-91 -119 -36 -8 -67 -12 -69 -10 -10 10 12 35 47 53 44 22 92 74 92 99 0 22
19 2 21 -23z m-11 -194 c49 -36 60 -71 70 -213 5 -81 19 -170 34 -228 44 -171
45 -271 3 -313 -17 -17 -28 -19 -86 -13 -46 5 -85 2 -127 -9 -84 -21 -131 -7
-159 50 -17 35 -20 60 -20 190 1 196 41 400 96 491 43 71 127 91 189 45z"/>
<path d="M623 1453 c-18 -7 -16 -43 2 -43 18 0 31 28 19 39 -5 5 -15 6 -21 4z"/>
<path d="M1590 860 c0 -493 3 -750 10 -750 7 0 10 257 10 750 0 493 -3 750
-10 750 -7 0 -10 -257 -10 -750z"/>
<path d="M1975 1570 c3 -5 22 -10 41 -10 l34 0 0 -170 0 -170 -40 -6 c-73 -12
-42 -24 60 -24 104 0 133 13 55 24 l-45 7 0 63 0 64 88 4 c95 4 130 19 150 64
26 56 4 131 -45 153 -31 14 -307 15 -298 1z m278 -21 c44 -20 59 -77 32 -128
-19 -37 -31 -41 -126 -41 l-79 0 0 90 0 90 75 0 c41 0 85 -5 98 -11z"/>
<path d="M3700 1560 c0 -13 7 -20 20 -20 13 0 20 7 20 20 0 13 -7 20 -20 20
-13 0 -20 -7 -20 -20z"/>
<path d="M3197 1498 c-22 -22 -32 -25 -75 -20 -44 4 -53 1 -83 -26 -29 -26
-34 -37 -34 -75 0 -31 6 -52 20 -67 18 -20 18 -22 2 -31 -19 -11 -23 -54 -6
-64 7 -5 3 -14 -10 -26 -25 -23 -28 -71 -6 -92 24 -24 84 -40 132 -34 62 7 97
35 101 80 4 47 -22 64 -118 76 -77 10 -106 25 -80 41 8 5 34 10 58 10 49 0 97
21 112 49 14 26 13 84 -2 116 -11 24 -9 29 12 45 19 15 22 22 13 31 -9 9 -17
6 -36 -13z m-23 -68 c31 -30 27 -87 -8 -116 -31 -28 -56 -30 -95 -9 -32 16
-41 33 -41 74 0 71 92 104 144 51z m-16 -240 c30 0 62 -33 55 -58 -14 -55
-165 -64 -193 -12 -24 45 17 83 80 75 19 -3 45 -5 58 -5z"/>
<path d="M2410 1467 c-13 -7 -35 -28 -47 -46 -30 -44 -32 -132 -4 -177 25 -41
83 -68 133 -61 41 5 88 40 88 64 0 18 -6 16 -34 -12 -20 -19 -35 -25 -71 -25
-61 0 -105 40 -105 94 l0 36 110 0 c105 0 110 1 110 21 0 36 -31 89 -61 104
-34 18 -86 19 -119 2z m128 -43 c12 -14 22 -34 22 -45 0 -17 -8 -19 -95 -19
-102 0 -106 3 -78 51 32 54 109 61 151 13z"/>
<path d="M2676 1465 c-11 -8 -30 -15 -43 -15 -13 0 -23 -5 -23 -11 0 -7 14
-10 35 -7 l36 4 -3 -110 -3 -111 -27 -3 c-16 -2 -28 -8 -28 -13 0 -5 36 -9 80
-9 78 0 112 16 48 22 l-33 3 -3 88 c-3 87 -2 89 27 116 50 47 116 47 141 1 6
-12 10 -59 8 -113 l-3 -92 -33 -3 c-60 -6 -21 -22 54 -22 71 0 104 15 47 22
l-28 3 -5 108 c-5 105 -6 110 -34 134 -25 21 -37 24 -73 20 -26 -3 -54 -14
-67 -26 -29 -27 -36 -27 -36 4 0 29 -7 30 -34 10z"/>
<path d="M3306 1465 c-11 -8 -28 -15 -38 -15 -10 0 -18 -4 -18 -10 0 -5 14
-10 30 -10 l30 0 0 -82 c0 -98 19 -147 64 -161 35 -12 92 4 124 33 l22 21 0
-26 c0 -23 3 -25 45 -25 25 0 45 5 45 10 0 6 -13 10 -30 10 l-30 0 0 135 c0
74 -4 135 -8 135 -5 0 -17 -7 -28 -15 -10 -8 -29 -15 -41 -15 -12 0 -25 -5
-29 -11 -5 -8 6 -10 35 -7 l41 4 0 -79 c0 -43 -5 -87 -10 -98 -23 -43 -107
-63 -146 -35 -17 13 -19 29 -22 135 -2 67 -7 121 -10 121 -4 0 -16 -7 -26 -15z"/>
<path d="M3696 1465 c-11 -8 -28 -15 -37 -15 -10 0 -21 -5 -25 -11 -4 -7 6
-10 32 -7 l39 3 3 -104 c3 -111 -1 -121 -45 -121 -13 0 -23 -4 -23 -10 0 -6
33 -10 80 -10 44 0 80 4 80 9 0 5 -12 11 -27 13 l-28 3 -5 129 c-3 73 -9 131
-15 132 -5 2 -19 -3 -29 -11z"/>
<path d="M3886 1465 c-11 -8 -30 -15 -43 -15 -13 0 -23 -5 -23 -11 0 -7 14
-10 35 -7 l36 4 -3 -110 -3 -111 -27 -3 c-58 -7 -25 -22 46 -22 75 0 114 16
54 22 l-33 3 -3 88 c-3 87 -2 89 27 116 50 47 116 47 141 1 6 -12 10 -59 8
-113 l-3 -92 -32 -3 c-65 -6 -31 -22 47 -22 44 0 80 4 80 9 0 5 -12 11 -27 13
l-28 3 -5 108 c-5 105 -6 110 -34 134 -25 21 -37 24 -72 20 -23 -2 -55 -14
-71 -27 l-28 -22 -3 26 c-4 30 -9 31 -36 11z"/>
<path d="M3261 1070 c-13 -11 -32 -20 -42 -20 -10 0 -19 -5 -19 -11 0 -8 13
-9 40 -5 l40 6 0 -60 c0 -64 -3 -68 -34 -45 -27 20 -91 19 -127 -2 -79 -47
-83 -204 -7 -257 33 -23 109 -21 142 5 l26 20 0 -20 c0 -23 23 -26 70 -11 24
8 23 8 -7 9 l-33 1 0 205 c0 220 -1 224 -49 185z m1 -170 c13 -17 18 -40 18
-92 0 -64 -3 -72 -29 -99 -87 -86 -204 27 -155 150 9 23 28 48 43 56 36 21
101 12 123 -15z"/>
<path d="M1976 1051 c-4 -5 12 -12 34 -16 l40 -7 0 -169 0 -169 -34 0 c-19 0
-38 -4 -41 -10 -4 -6 30 -10 94 -10 100 0 142 16 59 22 l-43 3 -3 68 -3 68 62
-3 63 -3 38 -77 38 -78 56 0 c34 0 53 4 49 10 -3 6 -23 10 -43 10 -36 0 -39 2
-70 65 -37 76 -39 85 -13 85 27 0 70 47 77 86 9 49 -22 106 -66 121 -41 14
-286 17 -294 4z m294 -31 c27 -15 43 -71 30 -105 -18 -46 -37 -54 -132 -55
l-88 0 0 85 0 85 86 0 c47 0 94 -4 104 -10z"/>
<path d="M4270 1051 c0 -5 18 -12 40 -16 l40 -7 0 -169 0 -169 -40 0 c-22 0
-40 -4 -40 -10 0 -6 40 -10 101 -10 64 0 98 4 94 10 -3 6 -24 10 -46 10 l-40
0 3 83 3 82 108 3 107 3 0 -86 0 -85 -40 0 c-22 0 -40 -4 -40 -10 0 -6 40 -10
101 -10 64 0 98 4 94 10 -3 6 -24 10 -46 10 l-39 0 0 169 0 170 45 7 c74 11
40 24 -61 24 -97 0 -125 -12 -54 -24 l40 -6 0 -75 0 -75 -110 0 -110 0 0 74 0
75 45 7 c25 3 42 10 39 15 -7 12 -194 12 -194 0z"/>
<path d="M5567 940 c-5 -21 -7 -21 -29 -6 -32 23 -103 21 -128 -4 -49 -49 -13
-106 83 -135 56 -17 87 -40 87 -65 0 -28 -34 -50 -75 -50 -33 0 -45 7 -81 45
-23 25 -43 45 -46 45 -3 0 0 -25 5 -55 10 -54 27 -75 27 -34 l0 20 26 -20 c34
-27 113 -29 142 -3 60 50 27 111 -78 142 -81 24 -101 47 -75 86 11 18 24 24
51 24 46 0 70 -14 89 -50 22 -43 34 -37 28 13 -7 56 -18 76 -26 47z"/>
<path d="M2434 927 c-20 -17 -25 -29 -20 -42 6 -17 10 -15 36 13 50 55 130 35
130 -33 0 -33 -1 -34 -49 -41 -27 -3 -66 -16 -87 -28 -33 -18 -39 -27 -42 -60
-5 -54 18 -76 77 -76 26 0 59 8 76 18 28 17 30 17 48 -1 26 -26 76 -8 77 28 0
5 -5 4 -12 -3 -17 -17 -45 -15 -52 4 -3 9 -6 56 -6 105 0 82 -2 92 -25 114
-34 35 -112 35 -151 2z m146 -167 c0 -35 -5 -43 -32 -60 -47 -28 -93 -26 -114
5 -15 23 -15 27 0 51 21 31 48 43 104 43 l42 1 0 -40z"/>
<path d="M2740 934 c-14 -7 -33 -14 -42 -14 -10 0 -18 -5 -18 -11 0 -8 14 -10
40 -6 l40 5 0 -109 0 -109 -29 0 c-17 0 -33 -4 -36 -10 -4 -6 24 -10 77 -10
57 0 78 3 68 10 -8 5 -23 10 -32 10 -16 0 -18 11 -18 94 0 94 0 95 30 116 45
32 93 37 119 11 19 -19 21 -33 21 -121 0 -99 0 -100 -24 -100 -14 0 -28 -4
-31 -10 -4 -6 22 -10 70 -10 48 0 74 4 70 10 -3 6 -17 10 -31 10 -24 0 -24 0
-24 105 0 99 -2 107 -25 130 -34 35 -102 35 -144 0 l-30 -26 -3 22 c-4 28 -16
31 -48 13z"/>
<path d="M3412 916 c-37 -34 -37 -35 -37 -111 0 -76 0 -77 37 -111 33 -30 44
-34 92 -34 84 0 136 55 136 145 0 88 -56 145 -143 145 -40 0 -53 -5 -85 -34z
m160 -15 c31 -28 33 -33 33 -96 0 -63 -2 -68 -33 -96 -51 -46 -133 -33 -160
26 -16 34 -15 114 2 144 31 57 107 67 158 22z"/>
<path d="M3716 935 c-11 -8 -30 -15 -44 -15 -14 0 -21 -4 -16 -11 4 -7 21 -9
40 -6 l34 6 0 -110 0 -109 -29 0 c-17 0 -33 -4 -36 -10 -4 -6 22 -10 70 -10
48 0 74 4 70 10 -3 6 -15 10 -26 10 -17 0 -19 8 -19 86 0 96 8 117 50 139 77
40 100 11 100 -123 0 -94 -1 -102 -19 -102 -11 0 -23 -4 -26 -10 -4 -6 21 -10
67 -10 51 0 68 3 58 10 -8 5 -23 10 -32 10 -16 0 -18 11 -18 85 0 96 12 125
60 145 40 16 78 5 90 -26 6 -14 10 -66 10 -115 0 -81 -2 -89 -19 -89 -11 0
-23 -4 -26 -10 -4 -6 21 -10 67 -10 51 0 68 3 58 10 -8 5 -22 10 -31 10 -14 0
-17 16 -21 109 -4 131 -15 151 -84 151 -32 0 -51 -7 -75 -27 -22 -19 -34 -24
-37 -15 -16 49 -92 57 -141 16 l-31 -26 0 26 c0 29 -15 33 -44 11z"/>
<path d="M4774 931 c-33 -20 -64 -83 -64 -129 1 -45 36 -109 69 -126 66 -35
157 -12 188 47 21 41 21 122 -1 165 -31 60 -128 82 -192 43z m139 -22 c56 -43
60 -148 7 -201 -60 -60 -159 -22 -176 66 -15 83 34 156 106 156 22 0 48 -8 63
-21z"/>
<path d="M5046 935 c-11 -8 -28 -15 -38 -15 -10 0 -18 -5 -18 -11 0 -7 13 -10
34 -7 l34 4 4 -104 c3 -95 5 -105 27 -123 34 -28 99 -25 145 6 l36 24 0 -24
c0 -27 20 -31 70 -15 24 8 23 8 -7 9 l-33 1 0 136 c0 125 -1 136 -17 131 -71
-23 -93 -33 -93 -41 0 -5 18 -6 40 -3 l40 5 0 -82 c0 -73 -3 -85 -22 -103 -52
-47 -105 -56 -138 -23 -18 18 -20 33 -20 135 0 121 -4 130 -44 100z"/>
<path d="M5706 929 c-37 -29 -56 -71 -56 -124 0 -91 51 -145 135 -145 55 0
105 27 105 56 0 19 -5 18 -34 -11 -62 -62 -176 -9 -176 80 l0 25 110 0 110 0
0 25 c0 34 -24 80 -52 99 -33 23 -109 21 -142 -5z m117 -10 c25 -11 47 -47 47
-74 0 -12 -19 -15 -95 -15 -60 0 -95 4 -95 10 0 6 7 25 16 41 23 45 77 61 127
38z"/>
<path d="M4300 544 c-14 -7 -33 -14 -42 -14 -10 0 -18 -5 -18 -11 0 -8 14 -10
40 -6 l40 5 0 -64 c0 -68 -3 -72 -34 -49 -26 20 -89 19 -127 -1 -35 -18 -68
-82 -69 -133 -1 -118 119 -187 205 -120 l25 20 0 -20 c0 -16 6 -21 28 -20 15
0 36 4 47 9 17 7 15 9 -12 9 l-33 1 0 205 c0 219 1 217 -50 189z m-6 -169 c23
-22 26 -31 26 -95 0 -66 -2 -74 -29 -101 -58 -58 -151 -26 -167 57 -16 87 32
164 104 164 28 0 47 -7 66 -25z"/>
<path d="M5910 545 c-14 -8 -33 -14 -42 -15 -10 0 -18 -5 -18 -11 0 -7 14 -10
35 -7 l35 4 0 -177 0 -176 -32 -11 c-29 -9 -23 -10 47 -10 70 0 76 1 48 10
l-33 11 0 198 c0 110 -3 199 -7 199 -5 -1 -19 -7 -33 -15z"/>
<path d="M2085 522 c-22 -11 -48 -28 -57 -38 -72 -81 -60 -266 21 -323 72 -50
147 -48 211 5 l30 26 0 -26 c0 -13 5 -28 10 -31 6 -4 10 25 10 79 l0 86 30 0
c17 0 30 5 30 10 0 6 -35 10 -85 10 -50 0 -85 -4 -85 -10 0 -5 18 -10 40 -10
38 0 40 -2 40 -30 0 -137 -193 -165 -251 -36 -24 54 -24 139 1 193 50 112 197
111 252 -2 21 -44 44 -62 34 -27 -4 15 -26 131 -26 139 0 2 -4 1 -10 -2 -5 -3
-10 -15 -10 -26 0 -20 -1 -20 -31 2 -42 30 -104 34 -154 11z"/>
<path d="M3680 520 c0 -5 10 -10 23 -10 12 0 32 -3 45 -6 22 -6 22 -9 22 -175
l0 -169 -27 -1 c-16 0 -37 -4 -48 -9 -12 -5 48 -8 154 -7 l175 2 12 55 c25
107 10 122 -21 20 l-18 -60 -99 0 -98 0 0 85 0 86 58 -3 c56 -3 57 -3 60 -35
6 -65 22 -31 22 47 0 78 -16 112 -22 48 -3 -33 -4 -33 -60 -36 l-58 -3 0 76 0
75 90 0 90 0 27 -52 c32 -63 42 -44 16 28 l-19 49 -162 3 c-106 2 -162 -1
-162 -8z"/>
<path d="M4486 521 c-10 -16 5 -42 23 -39 21 4 21 42 -1 46 -9 2 -19 -1 -22
-7z"/>
<path d="M5434 515 c-7 -18 3 -35 21 -35 15 0 28 27 19 41 -8 14 -34 11 -40
-6z"/>
<path d="M4646 488 c-3 -13 -7 -34 -8 -48 -2 -19 -10 -26 -30 -28 -38 -4 -36
-22 2 -22 l30 0 0 -106 c0 -58 5 -114 11 -125 25 -48 112 -44 139 6 19 35 4
43 -21 12 -22 -29 -66 -36 -87 -15 -8 8 -12 49 -12 120 l0 108 50 0 c28 0 50
5 50 10 0 6 -22 10 -50 10 l-50 0 0 44 c0 49 -16 71 -24 34z"/>
<path d="M2430 404 c-14 -7 -33 -14 -43 -14 -11 0 -15 -5 -11 -11 4 -7 21 -9
40 -6 l34 6 0 -109 0 -108 -37 -10 c-33 -9 -26 -10 52 -10 78 0 85 1 53 10
l-38 10 0 88 c0 78 3 92 23 115 21 25 39 30 82 23 13 -2 20 3 20 12 0 10 -12
16 -37 18 -29 3 -43 -2 -63 -22 l-25 -25 0 24 c0 28 -13 30 -50 9z"/>
<path d="M2676 405 c-11 -8 -28 -15 -38 -15 -10 0 -18 -5 -18 -11 0 -8 12 -10
35 -6 l35 6 0 -98 c0 -110 15 -144 69 -156 31 -7 93 14 123 42 17 15 18 14 18
-10 0 -29 19 -34 70 -20 24 7 23 8 -10 13 l-35 5 -3 133 c-2 122 -4 133 -20
126 -9 -4 -32 -12 -49 -18 -44 -15 -42 -28 5 -24 l37 3 3 -72 c2 -40 -2 -82
-8 -93 -16 -30 -70 -60 -107 -60 -52 0 -63 26 -63 157 0 119 -4 128 -44 98z"/>
<path d="M3026 405 c-11 -8 -30 -15 -44 -15 -14 0 -21 -4 -16 -11 4 -7 21 -9
40 -6 l34 6 0 -175 0 -174 -30 0 c-16 0 -30 -4 -30 -10 0 -6 33 -10 80 -10 78
0 112 16 48 22 -33 3 -33 3 -36 64 l-3 62 40 -20 c107 -53 212 53 181 183 -16
67 -55 99 -119 99 -34 0 -56 -6 -75 -21 l-26 -20 0 20 c0 24 -17 26 -44 6z
m197 -26 c56 -43 60 -148 7 -201 -36 -35 -94 -39 -134 -7 -24 19 -26 26 -26
95 0 70 2 78 29 105 36 35 86 39 124 8z"/>
<path d="M3401 407 c-34 -17 -61 -56 -67 -99 -21 -124 74 -214 182 -173 59 22
84 65 84 140 0 65 -18 104 -60 129 -33 19 -105 21 -139 3z m137 -36 c33 -34
44 -81 32 -137 -26 -114 -184 -112 -206 2 -17 91 29 164 105 164 30 0 46 -7
69 -29z"/>
<path d="M4480 405 c-14 -8 -33 -14 -42 -15 -10 0 -18 -5 -18 -11 0 -8 12 -10
35 -6 l35 6 0 -108 0 -108 -32 -11 c-28 -8 -21 -10 52 -10 75 0 81 1 48 10
l-38 10 0 129 c0 71 -3 129 -7 129 -5 -1 -19 -7 -33 -15z"/>
<path d="M4891 407 c-76 -39 -95 -165 -35 -237 56 -66 169 -58 215 16 18 29
21 46 17 101 -4 60 -7 68 -41 99 -31 29 -44 34 -84 34 -27 0 -59 -6 -72 -13z
m137 -37 c52 -51 52 -136 2 -190 -23 -25 -36 -30 -72 -30 -71 1 -108 45 -108
128 0 48 4 58 34 88 46 46 101 48 144 4z"/>
<path d="M5170 405 c-14 -8 -33 -14 -42 -15 -10 0 -18 -5 -18 -11 0 -8 13 -9
40 -5 l40 6 0 -109 0 -109 -37 -10 c-34 -9 -28 -10 47 -10 75 0 81 1 48 10
l-38 10 0 74 c0 80 15 122 51 148 17 11 27 12 45 4 27 -13 39 -6 31 17 -10 24
-62 18 -96 -11 l-31 -26 0 26 c0 30 -5 31 -40 11z"/>
<path d="M5420 404 c-14 -7 -33 -14 -43 -14 -11 0 -15 -5 -11 -11 4 -7 21 -9
40 -6 l34 6 0 -109 0 -108 -37 -10 c-34 -9 -28 -10 47 -10 73 0 80 2 53 10
l-33 11 0 128 c0 138 -1 140 -50 113z"/>
<path d="M5594 397 c-20 -18 -25 -29 -20 -43 7 -17 10 -16 34 14 22 26 34 32
64 32 41 0 78 -36 78 -76 0 -20 -7 -24 -47 -30 -65 -9 -122 -33 -133 -55 -16
-28 -12 -74 8 -92 32 -29 73 -30 125 -4 26 13 47 20 47 15 0 -4 11 -13 24 -19
28 -13 66 3 66 28 0 15 -1 15 -18 0 -30 -28 -39 -7 -44 100 -3 91 -6 105 -28
128 -33 35 -116 36 -156 2z m156 -166 c0 -34 -5 -42 -34 -60 -44 -28 -100 -28
-120 0 -32 46 28 99 112 99 l42 0 0 -39z"/>
</g>
</svg>
